<svg width="23" height="108" viewBox="0 0 23 108" fill="none" xmlns="http://www.w3.org/2000/svg">
<path d="M13.5586 99.2344C13.2227 99.2344 12.9258 99.2695 12.668 99.3398C12.4023 99.4023 12.1602 99.5273 11.9414 99.7148C11.7227 99.9023 11.5078 100.172 11.2969 100.523C11.0781 100.875 10.8555 101.328 10.6289 101.883C10.3633 102.539 10.082 103.16 9.78516 103.746C9.48047 104.332 9.12891 104.855 8.73047 105.316C8.33203 105.777 7.86328 106.141 7.32422 106.406C6.78516 106.664 6.15625 106.793 5.4375 106.793C4.73438 106.793 4.09375 106.668 3.51562 106.418C2.92969 106.16 2.42969 105.797 2.01562 105.328C1.59375 104.859 1.26953 104.305 1.04297 103.664C0.816406 103.016 0.703125 102.301 0.703125 101.52C0.703125 100.418 0.933594 99.4727 1.39453 98.6836C1.85547 97.8945 2.48047 97.2852 3.26953 96.8555C4.05859 96.4258 4.94922 96.2109 5.94141 96.2109V99.3398C5.42578 99.3398 4.96875 99.418 4.57031 99.5742C4.16406 99.7227 3.84766 99.9609 3.62109 100.289C3.39453 100.617 3.28125 101.039 3.28125 101.555C3.28125 102.039 3.37891 102.438 3.57422 102.75C3.76172 103.062 4.01953 103.293 4.34766 103.441C4.66797 103.59 5.03516 103.664 5.44922 103.664C5.74609 103.664 6.01562 103.598 6.25781 103.465C6.49219 103.324 6.70703 103.133 6.90234 102.891C7.09766 102.648 7.28516 102.355 7.46484 102.012C7.63672 101.66 7.80469 101.27 7.96875 100.84C8.26562 100.051 8.59375 99.3594 8.95312 98.7656C9.30469 98.1719 9.70312 97.6797 10.1484 97.2891C10.5859 96.8906 11.082 96.5938 11.6367 96.3984C12.1914 96.2031 12.8242 96.1055 13.5352 96.1055C14.2383 96.1055 14.8789 96.2266 15.457 96.4688C16.0352 96.7109 16.5312 97.0625 16.9453 97.5234C17.3594 97.9844 17.6797 98.543 17.9062 99.1992C18.125 99.8477 18.2344 100.57 18.2344 101.367C18.2344 102.133 18.125 102.863 17.9062 103.559C17.6797 104.246 17.3398 104.855 16.8867 105.387C16.4336 105.918 15.8633 106.336 15.1758 106.641C14.4805 106.945 13.6641 107.098 12.7266 107.098V103.969C13.25 103.969 13.7031 103.91 14.0859 103.793C14.4609 103.676 14.7656 103.5 15 103.266C15.2266 103.031 15.3945 102.75 15.5039 102.422C15.6055 102.094 15.6562 101.723 15.6562 101.309C15.6562 100.816 15.5664 100.418 15.3867 100.113C15.207 99.8086 14.9609 99.5859 14.6484 99.4453C14.3281 99.3047 13.9648 99.2344 13.5586 99.2344ZM14.9062 88.0927L5.32031 85.7372V83.8505L8.71875 84.2606L18 86.5927V88.2216L14.9062 88.0927ZM5.32031 88.9247L14.918 87.2255L18 87.2137V89.077L5.32031 91.8309V88.9247ZM14.7891 82.0106L5.32031 80.37V77.452L18 80.2059V82.0575L14.7891 82.0106ZM5.32031 83.5575L14.8125 81.2255L18 81.0614V82.6903L8.73047 85.0341L5.32031 85.4442V83.5575ZM5.32031 69.6267H18V72.6384H5.32031L5.32031 69.6267ZM2.02734 72.7908C1.55078 72.7908 1.15625 72.6423 0.84375 72.3455C0.53125 72.0486 0.375 71.6423 0.375 71.1267C0.375 70.6111 0.53125 70.2087 0.84375 69.9197C1.14844 69.6306 1.53906 69.4861 2.01563 69.4861C2.48438 69.4861 2.875 69.6306 3.1875 69.9197C3.49219 70.2087 3.64453 70.6111 3.64453 71.1267C3.64453 71.6423 3.49219 72.0486 3.1875 72.3455C2.875 72.6423 2.48828 72.7908 2.02734 72.7908ZM7.75781 60.9811H22.875V63.9811H5.32031V61.2155L7.75781 60.9811ZM11.1914 54.278H12.1172C13.1094 54.278 13.9844 54.3678 14.7422 54.5475C15.5 54.7194 16.1406 54.9772 16.6641 55.3209C17.1875 55.6647 17.582 56.0905 17.8477 56.5983C18.1055 57.1061 18.2344 57.6998 18.2344 58.3795C18.2344 59.0202 18.0898 59.5709 17.8008 60.0319C17.5117 60.4928 17.1055 60.8834 16.582 61.2038C16.0586 61.5241 15.4453 61.778 14.7422 61.9655C14.0391 62.153 13.2773 62.2936 12.457 62.3873H11.0273C10.1523 62.3014 9.35156 62.1686 8.625 61.9889C7.89844 61.8014 7.26953 61.5475 6.73828 61.2272C6.20703 60.9069 5.80078 60.5163 5.51953 60.0553C5.23047 59.5866 5.08594 59.0358 5.08594 58.403C5.08594 57.7155 5.21094 57.1139 5.46094 56.5983C5.70313 56.0827 6.07422 55.653 6.57422 55.3092C7.07422 54.9655 7.71094 54.7077 8.48438 54.5358C9.25 54.3639 10.1523 54.278 11.1914 54.278ZM12.1172 57.2897H11.1914C10.5664 57.2897 10.0273 57.3288 9.57422 57.4069C9.12109 57.4772 8.75 57.5944 8.46094 57.7584C8.17188 57.9147 7.96094 58.1217 7.82813 58.3795C7.6875 58.6295 7.61719 58.9342 7.61719 59.2936C7.61719 59.6373 7.6875 59.9381 7.82813 60.1959C7.96094 60.4538 8.15234 60.6647 8.40234 60.8288C8.65234 60.9928 8.95313 61.1256 9.30469 61.2272C9.64844 61.3209 10.0313 61.3756 10.4531 61.3913H13.043C13.543 61.3522 13.9961 61.2623 14.4023 61.1217C14.8086 60.9733 15.1328 60.7506 15.375 60.4538C15.6094 60.1569 15.7266 59.7623 15.7266 59.2702C15.7266 58.903 15.6523 58.5944 15.5039 58.3444C15.3555 58.0944 15.1328 57.8913 14.8359 57.735C14.5391 57.5709 14.1641 57.4577 13.7109 57.3952C13.2578 57.3248 12.7266 57.2897 12.1172 57.2897ZM18.2344 44.2495C18.2344 45.0933 18.1055 45.8433 17.8477 46.4995C17.5898 47.148 17.2148 47.6987 16.7227 48.1519C16.2305 48.605 15.625 48.9527 14.9063 49.1948C14.1875 49.4292 13.3633 49.5464 12.4336 49.5464H11.2969C10.2422 49.5464 9.32813 49.4253 8.55469 49.1831C7.77344 48.9409 7.12891 48.605 6.62109 48.1753C6.10547 47.7378 5.72266 47.2144 5.47266 46.605C5.21484 45.9878 5.08594 45.3081 5.08594 44.5659C5.08594 43.7691 5.21875 43.0737 5.48438 42.48C5.74219 41.8784 6.12891 41.3823 6.64453 40.9917C7.16016 40.6011 7.80078 40.312 8.56641 40.1245C9.32422 39.9292 10.2031 39.8316 11.2031 39.8316H12.6445V48.1987H10.4531V42.7847H10.1602C9.61328 42.8003 9.14844 42.8667 8.76563 42.9839C8.38281 43.1011 8.09375 43.2886 7.89844 43.5464C7.69531 43.7964 7.59375 44.1402 7.59375 44.5777C7.59375 44.9214 7.66406 45.2183 7.80469 45.4683C7.9375 45.7183 8.14844 45.9214 8.4375 46.0777C8.71875 46.2261 9.09766 46.3394 9.57422 46.4175C10.043 46.4956 10.6172 46.5347 11.2969 46.5347H12.4336C13.0352 46.5347 13.5469 46.48 13.9688 46.3706C14.3828 46.2612 14.7227 46.1011 14.9883 45.8902C15.2461 45.6792 15.4336 45.4214 15.5508 45.1167C15.668 44.812 15.7266 44.4566 15.7266 44.0503C15.7266 43.4409 15.6172 42.9058 15.3984 42.4448C15.1719 41.9839 14.8711 41.5855 14.4961 41.2495L16.3359 39.9956C16.6406 40.2222 16.9414 40.5308 17.2383 40.9214C17.5273 41.312 17.7656 41.7847 17.9531 42.3394C18.1406 42.8862 18.2344 43.523 18.2344 44.2495ZM0.9375 18.5559L0.9375 15.4153H12.7266C14.0313 15.4153 15.0898 15.6575 15.9023 16.1419C16.7148 16.6263 17.3086 17.2864 17.6836 18.1223C18.0508 18.9583 18.2344 19.8997 18.2344 20.9466C18.2344 22.0169 18.0508 22.97 17.6836 23.8059C17.3086 24.6419 16.7148 25.2981 15.9023 25.7747C15.0898 26.2434 14.0313 26.4778 12.7266 26.4778H0.9375L0.9375 23.3489H12.7266C13.5 23.3489 14.0977 23.2552 14.5195 23.0677C14.9414 22.8723 15.2305 22.5989 15.3867 22.2473C15.543 21.8958 15.6211 21.4622 15.6211 20.9466C15.6211 20.4309 15.543 19.9973 15.3867 19.6458C15.2305 19.2942 14.9414 19.0247 14.5195 18.8372C14.0977 18.6497 13.5 18.5559 12.7266 18.5559H0.9375ZM7.75781 6.94547H22.875V9.94547H5.32031V7.17984L7.75781 6.94547ZM11.1914 0.24234H12.1172C13.1094 0.24234 13.9844 0.332184 14.7422 0.511871C15.5 0.683746 16.1406 0.941559 16.6641 1.28531C17.1875 1.62906 17.582 2.05484 17.8477 2.56265C18.1055 3.07047 18.2344 3.66422 18.2344 4.3439C18.2344 4.98453 18.0898 5.53531 17.8008 5.99625C17.5117 6.45718 17.1055 6.84781 16.582 7.16812C16.0586 7.48843 15.4453 7.74234 14.7422 7.92984C14.0391 8.11734 13.2773 8.25797 12.457 8.35172H11.0273C10.1523 8.26578 9.35156 8.13297 8.625 7.95328C7.89844 7.76578 7.26953 7.51187 6.73828 7.19156C6.20703 6.87125 5.80078 6.48062 5.51953 6.01968C5.23047 5.55093 5.08594 5.00015 5.08594 4.36734C5.08594 3.67984 5.21094 3.07828 5.46094 2.56265C5.70313 2.04703 6.07422 1.61734 6.57422 1.27359C7.07422 0.92984 7.71094 0.672028 8.48438 0.500153C9.25 0.328278 10.1523 0.24234 11.1914 0.24234ZM12.1172 3.25406H11.1914C10.5664 3.25406 10.0273 3.29312 9.57422 3.37125C9.12109 3.44156 8.75 3.55875 8.46094 3.72281C8.17188 3.87906 7.96094 4.08609 7.82813 4.3439C7.6875 4.5939 7.61719 4.89859 7.61719 5.25797C7.61719 5.60172 7.6875 5.9025 7.82813 6.16031C7.96094 6.41812 8.15234 6.62906 8.40234 6.79312C8.65234 6.95718 8.95313 7.09 9.30469 7.19156C9.64844 7.28531 10.0313 7.34 10.4531 7.35562H13.043C13.543 7.31656 13.9961 7.22672 14.4023 7.08609C14.8086 6.93765 15.1328 6.715 15.375 6.41812C15.6094 6.12125 15.7266 5.72672 15.7266 5.23453C15.7266 4.86734 15.6523 4.55875 15.5039 4.30875C15.3555 4.05875 15.1328 3.85562 14.8359 3.69937C14.5391 3.53531 14.1641 3.42203 13.7109 3.35953C13.2578 3.28922 12.7266 3.25406 12.1172 3.25406Z" fill="black"/>
</svg>
